<svg xmlns="http://www.w3.org/2000/svg" width="890" height="769.0" viewBox="0 0 890 769.0" font-family="Segoe UI, Helvetica, Arial, sans-serif">
<rect width="890" height="769.0" fill="#f4f6fb"/>
<text x="445.0" y="38" text-anchor="middle" fill="#15233b" font-size="24" font-weight="800">FIFA World Cup 2022 — Qatar</text>
<text x="445.0" y="751.0" text-anchor="middle" fill="#d4af37" font-size="15" font-weight="700">🏆 Champion: Argentina</text>
<text x="115.0" y="120" text-anchor="middle" fill="#15233b" font-size="13" font-weight="700" opacity="0.7">Round of 16</text>
<g><rect x="40" y="160.0625" width="150" height="46" rx="6" fill="#ffffff" stroke="#9fb0c7" stroke-width="1"/><line x1="40" y1="183.0625" x2="190" y2="183.0625" stroke="#f4f6fb" stroke-width="1"/><text x="50" y="175.5625" fill="#1b6b3a" font-weight="700" font-size="13">Netherlands</text><text x="50" y="198.5625" fill="#15233b" font-weight="500" font-size="13">USA</text><text x="182" y="187.0625" text-anchor="end" fill="#d4af37" font-weight="700" font-size="11">3–1</text></g>
<g><rect x="40" y="226.1875" width="150" height="46" rx="6" fill="#ffffff" stroke="#9fb0c7" stroke-width="1"/><line x1="40" y1="249.1875" x2="190" y2="249.1875" stroke="#f4f6fb" stroke-width="1"/><text x="50" y="241.6875" fill="#1b6b3a" font-weight="700" font-size="13">Argentina</text><text x="50" y="264.6875" fill="#15233b" font-weight="500" font-size="13">Australia</text><text x="182" y="253.1875" text-anchor="end" fill="#d4af37" font-weight="700" font-size="11">2–1</text></g>
<g><rect x="40" y="292.3125" width="150" height="46" rx="6" fill="#ffffff" stroke="#9fb0c7" stroke-width="1"/><line x1="40" y1="315.3125" x2="190" y2="315.3125" stroke="#f4f6fb" stroke-width="1"/><text x="50" y="307.8125" fill="#15233b" font-weight="500" font-size="13">Japan</text><text x="50" y="330.8125" fill="#1b6b3a" font-weight="700" font-size="13">Croatia</text><text x="182" y="319.3125" text-anchor="end" fill="#d4af37" font-weight="700" font-size="11">1–1 (1–3 p)</text></g>
<g><rect x="40" y="358.4375" width="150" height="46" rx="6" fill="#ffffff" stroke="#9fb0c7" stroke-width="1"/><line x1="40" y1="381.4375" x2="190" y2="381.4375" stroke="#f4f6fb" stroke-width="1"/><text x="50" y="373.9375" fill="#1b6b3a" font-weight="700" font-size="13">Brazil</text><text x="50" y="396.9375" fill="#15233b" font-weight="500" font-size="13">South Korea</text><text x="182" y="385.4375" text-anchor="end" fill="#d4af37" font-weight="700" font-size="11">4–1</text></g>
<g><rect x="40" y="424.5625" width="150" height="46" rx="6" fill="#ffffff" stroke="#9fb0c7" stroke-width="1"/><line x1="40" y1="447.5625" x2="190" y2="447.5625" stroke="#f4f6fb" stroke-width="1"/><text x="50" y="440.0625" fill="#1b6b3a" font-weight="700" font-size="13">England</text><text x="50" y="463.0625" fill="#15233b" font-weight="500" font-size="13">Senegal</text><text x="182" y="451.5625" text-anchor="end" fill="#d4af37" font-weight="700" font-size="11">3–0</text></g>
<g><rect x="40" y="490.6875" width="150" height="46" rx="6" fill="#ffffff" stroke="#9fb0c7" stroke-width="1"/><line x1="40" y1="513.6875" x2="190" y2="513.6875" stroke="#f4f6fb" stroke-width="1"/><text x="50" y="506.1875" fill="#1b6b3a" font-weight="700" font-size="13">France</text><text x="50" y="529.1875" fill="#15233b" font-weight="500" font-size="13">Poland</text><text x="182" y="517.6875" text-anchor="end" fill="#d4af37" font-weight="700" font-size="11">3–1</text></g>
<g><rect x="40" y="556.8125" width="150" height="46" rx="6" fill="#ffffff" stroke="#9fb0c7" stroke-width="1"/><line x1="40" y1="579.8125" x2="190" y2="579.8125" stroke="#f4f6fb" stroke-width="1"/><text x="50" y="572.3125" fill="#1b6b3a" font-weight="700" font-size="13">Morocco</text><text x="50" y="595.3125" fill="#15233b" font-weight="500" font-size="13">Spain</text><text x="182" y="583.8125" text-anchor="end" fill="#d4af37" font-weight="700" font-size="11">0–0 (3–0 p)</text></g>
<g><rect x="40" y="622.9375" width="150" height="46" rx="6" fill="#ffffff" stroke="#9fb0c7" stroke-width="1"/><line x1="40" y1="645.9375" x2="190" y2="645.9375" stroke="#f4f6fb" stroke-width="1"/><text x="50" y="638.4375" fill="#1b6b3a" font-weight="700" font-size="13">Portugal</text><text x="50" y="661.4375" fill="#15233b" font-weight="500" font-size="13">Switzerland</text><text x="182" y="649.9375" text-anchor="end" fill="#d4af37" font-weight="700" font-size="11">6–1</text></g>
<text x="335.0" y="120" text-anchor="middle" fill="#15233b" font-size="13" font-weight="700" opacity="0.7">Quarter-finals</text>
<g><rect x="260" y="193.125" width="150" height="46" rx="6" fill="#ffffff" stroke="#9fb0c7" stroke-width="1"/><line x1="260" y1="216.125" x2="410" y2="216.125" stroke="#f4f6fb" stroke-width="1"/><text x="270" y="208.625" fill="#15233b" font-weight="500" font-size="13">Netherlands</text><text x="270" y="231.625" fill="#1b6b3a" font-weight="700" font-size="13">Argentina</text><text x="402" y="220.125" text-anchor="end" fill="#d4af37" font-weight="700" font-size="11">2–2 (3–4 p)</text></g>
<g><rect x="260" y="325.375" width="150" height="46" rx="6" fill="#ffffff" stroke="#9fb0c7" stroke-width="1"/><line x1="260" y1="348.375" x2="410" y2="348.375" stroke="#f4f6fb" stroke-width="1"/><text x="270" y="340.875" fill="#1b6b3a" font-weight="700" font-size="13">Croatia</text><text x="270" y="363.875" fill="#15233b" font-weight="500" font-size="13">Brazil</text><text x="402" y="352.375" text-anchor="end" fill="#d4af37" font-weight="700" font-size="11">1–1 (4–2 p)</text></g>
<g><rect x="260" y="457.625" width="150" height="46" rx="6" fill="#ffffff" stroke="#9fb0c7" stroke-width="1"/><line x1="260" y1="480.625" x2="410" y2="480.625" stroke="#f4f6fb" stroke-width="1"/><text x="270" y="473.125" fill="#1b6b3a" font-weight="700" font-size="13">Morocco</text><text x="270" y="496.125" fill="#15233b" font-weight="500" font-size="13">Portugal</text><text x="402" y="484.625" text-anchor="end" fill="#d4af37" font-weight="700" font-size="11">1–0</text></g>
<g><rect x="260" y="589.875" width="150" height="46" rx="6" fill="#ffffff" stroke="#9fb0c7" stroke-width="1"/><line x1="260" y1="612.875" x2="410" y2="612.875" stroke="#f4f6fb" stroke-width="1"/><text x="270" y="605.375" fill="#15233b" font-weight="500" font-size="13">England</text><text x="270" y="628.375" fill="#1b6b3a" font-weight="700" font-size="13">France</text><text x="402" y="616.875" text-anchor="end" fill="#d4af37" font-weight="700" font-size="11">1–2</text></g>
<text x="555.0" y="120" text-anchor="middle" fill="#15233b" font-size="13" font-weight="700" opacity="0.7">Semi-finals</text>
<g><rect x="480" y="259.25" width="150" height="46" rx="6" fill="#ffffff" stroke="#9fb0c7" stroke-width="1"/><line x1="480" y1="282.25" x2="630" y2="282.25" stroke="#f4f6fb" stroke-width="1"/><text x="490" y="274.75" fill="#1b6b3a" font-weight="700" font-size="13">Argentina</text><text x="490" y="297.75" fill="#15233b" font-weight="500" font-size="13">Croatia</text><text x="622" y="286.25" text-anchor="end" fill="#d4af37" font-weight="700" font-size="11">3–0</text></g>
<g><rect x="480" y="523.75" width="150" height="46" rx="6" fill="#ffffff" stroke="#9fb0c7" stroke-width="1"/><line x1="480" y1="546.75" x2="630" y2="546.75" stroke="#f4f6fb" stroke-width="1"/><text x="490" y="539.25" fill="#1b6b3a" font-weight="700" font-size="13">France</text><text x="490" y="562.25" fill="#15233b" font-weight="500" font-size="13">Morocco</text><text x="622" y="550.75" text-anchor="end" fill="#d4af37" font-weight="700" font-size="11">2–0</text></g>
<text x="775.0" y="120" text-anchor="middle" fill="#15233b" font-size="13" font-weight="700" opacity="0.7">Final</text>
<g><rect x="700" y="391.5" width="150" height="46" rx="6" fill="#ffffff" stroke="#9fb0c7" stroke-width="1"/><line x1="700" y1="414.5" x2="850" y2="414.5" stroke="#f4f6fb" stroke-width="1"/><text x="710" y="407.0" fill="#1b6b3a" font-weight="700" font-size="13">Argentina</text><text x="710" y="430.0" fill="#15233b" font-weight="500" font-size="13">France</text><text x="842" y="418.5" text-anchor="end" fill="#d4af37" font-weight="700" font-size="11">3–3 (4–2 p)</text></g>
<path d="M 190 183.0625 H 225.0 V 216.125 H 260" fill="none" stroke="#9fb0c7" stroke-width="1.5"/>
<path d="M 190 249.1875 H 225.0 V 216.125 H 260" fill="none" stroke="#9fb0c7" stroke-width="1.5"/>
<path d="M 190 315.3125 H 225.0 V 348.375 H 260" fill="none" stroke="#9fb0c7" stroke-width="1.5"/>
<path d="M 190 381.4375 H 225.0 V 348.375 H 260" fill="none" stroke="#9fb0c7" stroke-width="1.5"/>
<path d="M 190 447.5625 H 225.0 V 480.625 H 260" fill="none" stroke="#9fb0c7" stroke-width="1.5"/>
<path d="M 190 513.6875 H 225.0 V 480.625 H 260" fill="none" stroke="#9fb0c7" stroke-width="1.5"/>
<path d="M 190 579.8125 H 225.0 V 612.875 H 260" fill="none" stroke="#9fb0c7" stroke-width="1.5"/>
<path d="M 190 645.9375 H 225.0 V 612.875 H 260" fill="none" stroke="#9fb0c7" stroke-width="1.5"/>
<path d="M 410 216.125 H 445.0 V 282.25 H 480" fill="none" stroke="#9fb0c7" stroke-width="1.5"/>
<path d="M 410 348.375 H 445.0 V 282.25 H 480" fill="none" stroke="#9fb0c7" stroke-width="1.5"/>
<path d="M 410 480.625 H 445.0 V 546.75 H 480" fill="none" stroke="#9fb0c7" stroke-width="1.5"/>
<path d="M 410 612.875 H 445.0 V 546.75 H 480" fill="none" stroke="#9fb0c7" stroke-width="1.5"/>
<path d="M 630 282.25 H 665.0 V 414.5 H 700" fill="none" stroke="#9fb0c7" stroke-width="1.5"/>
<path d="M 630 546.75 H 665.0 V 414.5 H 700" fill="none" stroke="#9fb0c7" stroke-width="1.5"/>
</svg>